<svg xmlns="http://www.w3.org/2000/svg" xmlns:xlink="http://www.w3.org/1999/xlink" width="100" zoomAndPan="magnify" viewBox="0 0 75 74.999997" height="100" preserveAspectRatio="xMidYMid meet" version="1.0"><defs><g/><clipPath id="662a23edf3"><path d="M 37 32 L 61.359375 32 L 61.359375 40.367188 L 37 40.367188 Z M 37 32 " clip-rule="nonzero"/></clipPath><clipPath id="885b381a7d"><path d="M 13.359375 32 L 37 32 L 37 40.367188 L 13.359375 40.367188 Z M 13.359375 32 " clip-rule="nonzero"/></clipPath><clipPath id="b990ab8fca"><path d="M 24 13.367188 L 50 13.367188 L 50 29 L 24 29 Z M 24 13.367188 " clip-rule="nonzero"/></clipPath></defs><g clip-path="url(#662a23edf3)"><path fill="#034e80" d="M 39.78125 37.703125 C 47.910156 33.675781 55.289062 32.972656 58.949219 32.910156 C 60.273438 32.886719 61.351562 33.976562 61.328125 35.3125 C 61.304688 36.5625 60.3125 37.578125 59.074219 37.621094 C 48.402344 38 37.902344 40.367188 37.902344 40.367188 C 37.859375 39.152344 37.902344 38.859375 37.902344 38.859375 C 38.085938 38.339844 39.78125 37.703125 39.78125 37.703125 " fill-opacity="1" fill-rule="nonzero"/></g><path fill="#034e80" d="M 38.972656 35.09375 C 43.835938 31.011719 48.730469 29.3125 51.203125 28.660156 C 52.101562 28.425781 53.011719 28.988281 53.214844 29.898438 C 53.402344 30.75 52.894531 31.605469 52.058594 31.839844 C 44.875 33.867188 38.128906 37.214844 38.128906 37.214844 C 37.902344 36.394531 37.882812 36.191406 37.882812 36.191406 C 37.921875 35.804688 38.972656 35.09375 38.972656 35.09375 " fill-opacity="1" fill-rule="nonzero"/><g clip-path="url(#885b381a7d)"><path fill="#ffbd59" d="M 34.9375 37.703125 C 26.804688 33.675781 19.429688 32.972656 15.769531 32.910156 C 14.445312 32.886719 13.363281 33.976562 13.390625 35.3125 C 13.414062 36.5625 14.40625 37.578125 15.644531 37.621094 C 26.3125 38 36.816406 40.367188 36.816406 40.367188 C 36.855469 39.152344 36.816406 38.859375 36.816406 38.859375 C 36.632812 38.339844 34.9375 37.703125 34.9375 37.703125 " fill-opacity="1" fill-rule="nonzero"/></g><path fill="#ffbd59" d="M 35.746094 35.09375 C 30.882812 31.011719 25.988281 29.3125 23.511719 28.660156 C 22.617188 28.425781 21.703125 28.988281 21.503906 29.898438 C 21.316406 30.75 21.824219 31.605469 22.65625 31.839844 C 29.84375 33.867188 36.589844 37.214844 36.589844 37.214844 C 36.816406 36.394531 36.835938 36.191406 36.835938 36.191406 C 36.796875 35.804688 35.746094 35.09375 35.746094 35.09375 " fill-opacity="1" fill-rule="nonzero"/><g clip-path="url(#b990ab8fca)"><path fill="#1c70a2" d="M 48.996094 21.550781 L 43.097656 24.597656 L 43.109375 28.011719 L 43.070312 28.019531 L 43.070312 28.097656 L 42.53125 28.09375 L 37.382812 28.804688 L 31.644531 28.097656 L 31.640625 28.011719 L 31.601562 28.011719 L 31.617188 24.515625 L 25.75 21.378906 C 25.738281 21.371094 25.726562 21.367188 25.714844 21.359375 L 25.703125 23.082031 C 25.902344 23.132812 26.046875 23.261719 26.042969 23.414062 L 26.019531 26.914062 C 26.015625 27.105469 25.78125 27.261719 25.492188 27.257812 C 25.207031 27.257812 24.972656 27.097656 24.972656 26.90625 L 25 23.40625 C 25 23.253906 25.144531 23.128906 25.347656 23.082031 L 25.363281 20.832031 C 25.316406 20.542969 25.4375 20.226562 25.726562 20.058594 L 28.648438 18.359375 L 31.417969 16.75 L 33.296875 15.65625 L 36.0625 14.046875 L 37.050781 13.472656 C 37.167969 13.402344 37.300781 13.371094 37.433594 13.371094 C 37.5625 13.371094 37.695312 13.40625 37.8125 13.476562 L 37.941406 13.554688 L 40.710938 15.222656 L 42.589844 16.351562 L 45.359375 18.015625 L 49.039062 20.226562 C 49.542969 20.53125 49.519531 21.277344 48.996094 21.550781 " fill-opacity="1" fill-rule="nonzero"/></g><path fill="#3496c6" d="M 37.382812 28.804688 L 37.441406 20.625 L 43.105469 22.703125 L 43.066406 28.105469 L 37.382812 28.804688 " fill-opacity="1" fill-rule="nonzero"/><g fill="#051d40" fill-opacity="1"><g transform="translate(15.028823, 52.034126)"><g><path d="M 0.515625 -5.125 L 2.75 -5.125 C 3.394531 -5.125 3.894531 -4.96875 4.25 -4.65625 C 4.613281 -4.34375 4.796875 -3.898438 4.796875 -3.328125 C 4.796875 -2.734375 4.613281 -2.269531 4.25 -1.9375 C 3.894531 -1.601562 3.394531 -1.4375 2.75 -1.4375 L 1.8125 -1.4375 L 1.8125 0 L 0.515625 0 Z M 1.8125 -4.09375 L 1.8125 -2.46875 L 2.671875 -2.46875 C 2.960938 -2.46875 3.1875 -2.535156 3.34375 -2.671875 C 3.5 -2.816406 3.578125 -3.023438 3.578125 -3.296875 C 3.578125 -3.554688 3.5 -3.753906 3.34375 -3.890625 C 3.1875 -4.023438 2.960938 -4.09375 2.671875 -4.09375 Z M 1.8125 -4.09375 "/></g></g></g><g fill="#051d40" fill-opacity="1"><g transform="translate(20.734899, 52.034126)"><g><path d="M 2.9375 -5.15625 C 3.726562 -5.15625 4.390625 -4.90625 4.921875 -4.40625 C 5.453125 -3.914062 5.71875 -3.300781 5.71875 -2.5625 C 5.71875 -1.820312 5.453125 -1.195312 4.921875 -0.6875 C 4.390625 -0.1875 3.726562 0.0625 2.9375 0.0625 C 2.144531 0.0625 1.484375 -0.1875 0.953125 -0.6875 C 0.429688 -1.1875 0.171875 -1.8125 0.171875 -2.5625 C 0.171875 -3.3125 0.429688 -3.929688 0.953125 -4.421875 C 1.484375 -4.910156 2.144531 -5.15625 2.9375 -5.15625 Z M 2.953125 -4.078125 C 2.554688 -4.078125 2.210938 -3.929688 1.921875 -3.640625 C 1.640625 -3.347656 1.5 -2.988281 1.5 -2.5625 C 1.5 -2.132812 1.640625 -1.769531 1.921875 -1.46875 C 2.210938 -1.175781 2.554688 -1.03125 2.953125 -1.03125 C 3.347656 -1.03125 3.679688 -1.175781 3.953125 -1.46875 C 4.234375 -1.769531 4.375 -2.132812 4.375 -2.5625 C 4.375 -2.988281 4.234375 -3.347656 3.953125 -3.640625 C 3.679688 -3.929688 3.347656 -4.078125 2.953125 -4.078125 Z M 2.953125 -4.078125 "/></g></g></g><g fill="#051d40" fill-opacity="1"><g transform="translate(27.354206, 52.034126)"><g><path d="M 1.8125 -1.09375 L 3.984375 -1.09375 L 3.984375 0 L 0.515625 0 L 0.515625 -5.125 L 1.8125 -5.125 Z M 1.8125 -1.09375 "/></g></g></g><g fill="#051d40" fill-opacity="1"><g transform="translate(32.183575, 52.034126)"><g><path d="M 3.15625 -1.65625 L 3.15625 0 L 1.859375 0 L 1.859375 -1.609375 L -0.03125 -5.125 L 1.265625 -5.125 L 2.5 -2.890625 L 3.703125 -5.125 L 5.015625 -5.125 Z M 3.15625 -1.65625 "/></g></g></g><g fill="#051d40" fill-opacity="1"><g transform="translate(37.889651, 52.034126)"><g><path d="M 3.90625 -2.609375 L 5.03125 -2.609375 L 5.03125 -0.609375 C 4.757812 -0.410156 4.425781 -0.25 4.03125 -0.125 C 3.632812 0 3.257812 0.0625 2.90625 0.0625 C 2.125 0.0625 1.472656 -0.1875 0.953125 -0.6875 C 0.429688 -1.1875 0.171875 -1.8125 0.171875 -2.5625 C 0.171875 -3.300781 0.4375 -3.914062 0.96875 -4.40625 C 1.507812 -4.90625 2.1875 -5.15625 3 -5.15625 C 3.375 -5.15625 3.75 -5.085938 4.125 -4.953125 C 4.5 -4.816406 4.820312 -4.632812 5.09375 -4.40625 L 4.359375 -3.515625 C 4.171875 -3.679688 3.953125 -3.816406 3.703125 -3.921875 C 3.460938 -4.023438 3.222656 -4.078125 2.984375 -4.078125 C 2.566406 -4.078125 2.210938 -3.929688 1.921875 -3.640625 C 1.640625 -3.347656 1.5 -2.988281 1.5 -2.5625 C 1.5 -2.125 1.644531 -1.757812 1.9375 -1.46875 C 2.226562 -1.175781 2.582031 -1.03125 3 -1.03125 C 3.28125 -1.03125 3.582031 -1.113281 3.90625 -1.28125 Z M 3.90625 -2.609375 "/></g></g></g><g fill="#051d40" fill-opacity="1"><g transform="translate(44.055996, 52.034126)"><g><path d="M 1.8125 -1.09375 L 3.984375 -1.09375 L 3.984375 0 L 0.515625 0 L 0.515625 -5.125 L 1.8125 -5.125 Z M 1.8125 -1.09375 "/></g></g></g><g fill="#051d40" fill-opacity="1"><g transform="translate(48.885368, 52.034126)"><g><path d="M 2.9375 -5.15625 C 3.726562 -5.15625 4.390625 -4.90625 4.921875 -4.40625 C 5.453125 -3.914062 5.71875 -3.300781 5.71875 -2.5625 C 5.71875 -1.820312 5.453125 -1.195312 4.921875 -0.6875 C 4.390625 -0.1875 3.726562 0.0625 2.9375 0.0625 C 2.144531 0.0625 1.484375 -0.1875 0.953125 -0.6875 C 0.429688 -1.1875 0.171875 -1.8125 0.171875 -2.5625 C 0.171875 -3.3125 0.429688 -3.929688 0.953125 -4.421875 C 1.484375 -4.910156 2.144531 -5.15625 2.9375 -5.15625 Z M 2.953125 -4.078125 C 2.554688 -4.078125 2.210938 -3.929688 1.921875 -3.640625 C 1.640625 -3.347656 1.5 -2.988281 1.5 -2.5625 C 1.5 -2.132812 1.640625 -1.769531 1.921875 -1.46875 C 2.210938 -1.175781 2.554688 -1.03125 2.953125 -1.03125 C 3.347656 -1.03125 3.679688 -1.175781 3.953125 -1.46875 C 4.234375 -1.769531 4.375 -2.132812 4.375 -2.5625 C 4.375 -2.988281 4.234375 -3.347656 3.953125 -3.640625 C 3.679688 -3.929688 3.347656 -4.078125 2.953125 -4.078125 Z M 2.953125 -4.078125 "/></g></g></g><g fill="#051d40" fill-opacity="1"><g transform="translate(55.504675, 52.034126)"><g><path d="M 4.421875 -4.078125 L 2.875 -4.078125 L 2.875 0 L 1.578125 0 L 1.578125 -4.078125 L 0.046875 -4.078125 L 0.046875 -5.125 L 4.421875 -5.125 Z M 4.421875 -4.078125 "/></g></g></g></svg>